<?xml version="1.0" ?><svg viewBox="0 0 32 32" xmlns="http://www.w3.org/2000/svg"><defs><style>.cls-1{fill:#fb4854;}.cls-2{fill:#f1ecf0;}.cls-3{fill:#dfdedb;}.cls-3,.cls-4{fill-rule:evenodd;}.cls-4,.cls-5{fill:#fb4954;}</style></defs><g id="Clock"><path class="cls-1" d="M3.5,9.89h25A1.49,1.49,0,0,1,30,11.37V23a1.49,1.49,0,0,1-1.5,1.48H3.5A1.49,1.49,0,0,1,2,23V11.37A1.49,1.49,0,0,1,3.5,9.89"/><rect class="cls-2" height="9.1" rx="0.9" width="21.83" x="5.09" y="12.64"/><path class="cls-3" d="M28,8.32a.78.78,0,0,0-.24-.57.82.82,0,0,0-.57-.24H23.05a.82.82,0,0,0-.82.81V9.89H28Z"/><path class="cls-3" d="M16,8.32a.78.78,0,0,0-.24-.57.82.82,0,0,0-.57-.24H4.81A.82.82,0,0,0,4,8.32V9.89H16Z"/><path class="cls-4" d="M18.63,18.69h.68v-3h-.68Zm2.18-3.76a.76.76,0,0,0-.75-.75H17.88a.76.76,0,0,0-.75.75v4.51a.75.75,0,0,0,.75.75h2.18a.75.75,0,0,0,.75-.75Z"/><path class="cls-4" d="M22.69,18.69h.67v-3h-.67Zm2.17-3.76a.75.75,0,0,0-.75-.75H21.94a.76.76,0,0,0-.75.75v4.51a.75.75,0,0,0,.75.75h2.17a.74.74,0,0,0,.75-.75Z"/><path class="cls-5" d="M16,17.89a.74.74,0,1,0,.75.74.74.74,0,0,0-.75-.74"/><path class="cls-5" d="M16,15a.74.74,0,1,0,.75.74A.75.75,0,0,0,16,15"/><path class="cls-4" d="M8.64,18.69h.67v-3H8.64Zm2.17-3.76a.76.76,0,0,0-.75-.75H7.89a.75.75,0,0,0-.75.75v4.51a.74.74,0,0,0,.75.75h2.17a.75.75,0,0,0,.75-.75Z"/><path class="cls-4" d="M12.69,18.69h.68v-3h-.68Zm2.18-3.76a.76.76,0,0,0-.75-.75H11.94a.76.76,0,0,0-.75.75v4.51a.75.75,0,0,0,.75.75h2.18a.75.75,0,0,0,.75-.75Z"/></g></svg>